<?xml version="1.0" encoding="UTF-8"?>
<svg id="Layer_1" xmlns="http://www.w3.org/2000/svg" version="1.1" viewBox="0 0 200 200">
  <!-- Generator: Adobe Illustrator 29.6.1, SVG Export Plug-In . SVG Version: 2.1.1 Build 9)  -->
  <defs>
  </defs>
  <g>
    <path class="st2" fill="#0b4926" d="M100,192.17c-50.82,0-92.17-41.35-92.17-92.17S49.18,7.83,100,7.83s92.17,41.35,92.17,92.17-41.35,92.17-92.17,92.17Z"/>
    <path class="st0" fill="#b0fa62" d="M100,14.26c47.35,0,85.74,38.39,85.74,85.74h0c0,47.35-38.39,85.74-85.74,85.74h0c-47.35,0-85.74-38.39-85.74-85.74h0C14.26,52.65,52.65,14.26,100,14.26h0M100,1.4C45.63,1.4,1.4,45.63,1.4,100s44.23,98.6,98.6,98.6,98.6-44.23,98.6-98.6S154.37,1.4,100,1.4h0Z"/>
  </g>
  <g>
    <path class="st1" fill="#f2f2f2" d="M130.41,131.74c-.82.07-1.78.42-2.63.5,1,2.94,2.41,5.88,2.63,9.01h19.83s.49.46.49.49v9.34h-28.84c-.02-1.76-.13-3.63-.37-5.37-1.91-14.15-12.17-26.81-26.26-31.1-12.32-3.75-27.11-1.03-39.91-1.88v-9.5h95.37v9.34s-.46.49-.49.49h-37.2l5.91,5.4,3.1,3.78h28.35v9.5c-6.36.27-13.01-.36-19.34,0v-4.59h8.52v-.66h-8.52c-.02-.82.04-1.64,0-2.46-.02-.44.27-1.36-.49-1.14-.39.11-.06,2.99-.17,3.61h-8.85v.66h8.85v4.59Z"/>
    <path class="st1" fill="#f2f2f2" d="M150.4,93.72h-9.5c.33-20.71-17.25-38.44-38.02-38.02v-9.5c4.71-.05,9.6.75,14.1,2.13,19.66,6.01,33.84,24.64,33.43,45.4Z"/>
    <path class="st1" fill="#f2f2f2" d="M75.02,131.74c-6.55-.09-13.12.06-19.66,0v-9.01c0-.27.79-.58,1.13-.51,18.37,1.14,40.39-5.19,51.77,13.48,3.09,5.07,3.75,8.89,4.12,14.72l-.33.66c-1.98.18-6.14.24-8.06.02-.5-.06-.46-.1-.78-.35l-.33-.33c-.05-.16.04-.45,0-.66-.02-.11.02-.22,0-.33-1.85-7.85-3.8-12.05-11.24-15.74-4.61-2.29-10.57-1.87-15.97-1.96-.65-1.39-.21-3.08-.33-4.59h8.85c.02-.21-.43-.66-.49-.66h-7.87c-.07,0-.37.49-.49.33-.03-.92.03-1.86,0-2.79-.02-.44.27-1.36-.49-1.15-.39.11-.05,3.29-.17,3.93-.12.16-.42-.33-.49-.33h-8.03v.66h8.52c.12,1.51-.32,3.2.33,4.59Z"/>
    <path class="st1" fill="#f2f2f2" d="M93.37,77.17c-1.56,14.73-19.85,21.66-31.29,12.28-6.09-4.99-7.4-12.13-6.73-19.65,7.94.43,14.96,5.01,17.79,12.52l1.21,4.52c.62-1.26.56-3.94,1-4.98.04-.09.81-1.31,1.02-1.68,3.45-6.1,9.74-10.55,16.99-10.06-.17,2.26.24,4.83,0,7.05Z"/>
    <path class="st1" fill="#f2f2f2" d="M93.37,53.24c-1.46,13.78-17.66,21.16-29.27,13.87-7.3-4.58-9.67-12.63-8.74-20.91,7.87-.28,14.83,5.2,17.71,12.27l1.29,4.44c1.4-9.49,9.22-16.93,19.01-16.71-.17,2.26.24,4.83,0,7.05Z"/>
    <path class="st1" fill="#f2f2f2" d="M131.39,93.72h-9.5c-.02-10.38-8.67-18.88-19.01-19.01v-9.5c1.92,0,4.11-.02,5.98.41,1.28.29,4.55,1.51,5.81,2.05,10.16,4.38,16.97,14.92,16.72,26.05Z"/>
    <path class="st1" fill="#f2f2f2" d="M93.37,151.08h-38.35v-9.83h29.99c.1,0,1.55.39,1.8.46,3.66,1.15,7.09,5.39,6.56,9.37Z"/>
    <path class="st1" fill="#f2f2f2" d="M112.38,93.72h-9.5v-9.5c5.22,0,9.63,4.22,9.5,9.5Z"/>
    <path class="st1" fill="#f2f2f2" d="M130.41,131.74v-4.59h-8.85v-.66h8.85c.11-.62-.22-3.5.17-3.61.76-.22.47.7.49,1.14.04.82-.02,1.65,0,2.46h8.52v.66h-8.52v4.59c-.22.01-.44-.02-.66,0Z"/>
    <path class="st1" fill="#f2f2f2" d="M75.02,131.74c-.65-1.39-.21-3.08-.33-4.59h-8.52v-.66h8.03c.07,0,.37.49.49.33.12-.65-.22-3.82.17-3.93.76-.22.47.7.49,1.15.04.93-.03,1.86,0,2.79.12.16.42-.33.49-.33h7.87c.06,0,.52.44.49.66h-8.85c.12,1.51-.32,3.2.33,4.59-.17,0-.48,0-.66,0Z"/>
    <path class="st1" fill="#f2f2f2" d="M112.38,150.42s.46.31.33.65c-.21.02-.44-.02-.65,0l.33-.66Z"/>
    <path class="st1" fill="#f2f2f2" d="M102.88,149.77v-.33c.02.1-.02.22,0,.33Z"/>
    <path class="st1" fill="#f2f2f2" d="M103.21,150.75c-.12-.09-.28-.18-.33-.33l.33.33Z"/>
  </g>
</svg>