<?xml version="1.0" encoding="UTF-8"?>
<svg id="Layer_1" xmlns="http://www.w3.org/2000/svg" version="1.1" viewBox="0 0 200 200">
  <!-- Generator: Adobe Illustrator 29.6.1, SVG Export Plug-In . SVG Version: 2.1.1 Build 9)  -->
  <path class="st1" fill="#5599fe" stroke="#fff" stroke-miterlimit="10" stroke-width="9px" d="M194.67,100c0,52.29-42.38,94.68-94.67,94.68S5.33,152.28,5.33,100c0-.82,0-1.63.03-2.44C6.65,46.4,48.53,5.33,100,5.33s93.35,41.08,94.64,92.23c.02.81.03,1.62.03,2.44Z"/>
  <g>
    <path class="st0" fill="#fff" d="M116.97,129.38c.07,2.18.18,3.89-.73,5.92-1.23,2.73-4.3,3.85-5.89,6.21-2.58,3.82-.07,4.68,3.62,4.42,5.84-.41,6.43-6.36,6.23-11.1-.03-.67-.92-2.48,0-2.62,1.43,3.17,3.54,5.92,4.63,9.29s2.19,9.88,1.32,13.39c-1.97,7.98-12.4,2.37-17.45,1.92-4.48-.4-12.44-.37-16.95-.02-5.15.4-15.87,6.05-17.83-1.9-1.06-4.29.52-11.6,2.25-15.7,1.04-2.47,2.72-4.52,3.7-6.99.92.14.03,1.95,0,2.62-.18,4.45.35,10.52,5.84,11.09,3.7.38,6.71-.4,4.01-4.41-1.59-2.36-4.66-3.48-5.89-6.21-.91-2.02-.8-3.74-.73-5.92,1.66.56,2.89,1.8,4.56,2.49,6.32,2.59,17.11,2.6,23.58.44,2.19-.73,3.69-2.06,5.73-2.93Z"/>
    <path class="st0" fill="#fff" d="M117.38,160.44c.49.62-5.28,3.04-5.84,3.23-8.18,2.83-13.24,3.04-21.51.52-.82-.25-6.94-2.77-6.94-3.15,0-.75.47-.78.99-1.03,5.13-2.51,18.79-2.56,24.62-1.99,2.88.28,5.87,1.74,8.67,2.42Z"/>
    <g>
      <path class="st0" fill="#fff" d="M133.56,81.45l1.17,7.98c3.91-.73,7.56-2.83,11.58-3.51,8.85-1.5,18.53,1.47,27.08,3.57-1.74,19.58-23.07,26.28-39.07,17.71-3.54,7.76-1.3,16.1-4.54,23.89l-1.91,3.93c-.46-3.09-1.27-6.14-2.48-9.01-3.99-9.46-16.24-18.47-12.97-30.02,1.53-5.41,8.33-11.95,7.8-17.23-.48-4.73-7.23-10.72-10.5-13.9,4.46,1.66,9-1.53,13.1-1.64s4.2,1.95,8.32-.53,7.64-7.12,8.71-11.86c.34-1.51.38-7.12,1.13-7.35,2.1-.63,4.92,6.68,5.31,8.39,2.6,11.37-4.14,22.78-12.73,29.59ZM131.09,96.3c-3.61-5.71-10.6-3.29-10.48,3.23l1.2-.81c1.83,6.47,10.01,3.78,7.26-2.82l2.02.4Z"/>
      <path class="st0" fill="#fff" d="M90.35,64.85c-3.48,3.49-10.11,9.09-10.5,14.32-.34,4.57,4.68,9.62,6.54,13.63,6.26,13.55-6.6,22.17-11.71,33.2l-2.88,9.01c-1.06-3.01-2.43-6.1-3.04-9.26-1.2-6.19-.09-12.54-3.02-18.57-16.04,8.56-36.98,1.95-39.14-17.5.13-.46,8.1-2.32,9.22-2.54,8.35-1.68,14.75-2.44,23.06.1,1.16.36,6.17,2.89,6.87,2.2-.17-2.68.12-5.23.83-7.81-10.96-8.6-19.22-26.3-8.23-38.12.6-.22,1.09,0,1.28.61.41,1.31.13,4.67.58,6.68,1.07,4.74,4.58,9.38,8.71,11.86s4.35.42,8.32.53,8.65,3.3,13.1,1.64ZM79.46,99.53c.18-4.82-4.29-8.47-8.66-5.24-.55.4-2.23,1.88-1.62,2.42l1.82-.8c-2.75,6.6,5.44,9.29,7.26,2.82l1.2.81Z"/>
    </g>
  </g>
</svg>