<svg id="Layer_1" enable-background="new 0 0 512 512" height="512" viewBox="0 0 512 512" width="512" xmlns="http://www.w3.org/2000/svg"><g><path d="m507.606 116.842-112.467-112.466c-5.586-5.811-15.628-5.81-21.213 0l-112.466 112.466c-4.29 4.29-5.573 10.742-3.252 16.347 2.322 5.605 7.792 9.26 13.858 9.26h49.267v354.533c0 8.284 6.716 15 15 15h96.4c8.284 0 15-6.716 15-15v-354.533h49.267c6.067 0 11.537-3.655 13.858-9.26s1.038-12.056-3.252-16.347z"/><path d="m272.067 208.849h-96.4c-8.284 0-15 6.716-15 15v273.133c0 8.284 6.716 15 15 15h96.4c8.284 0 15-6.716 15-15v-273.133c0-8.284-6.716-15-15-15z"/><path d="m111.4 337.382h-96.4c-8.284 0-15 6.716-15 15v144.6c0 8.284 6.716 15 15 15h96.4c8.284 0 15-6.716 15-15v-144.6c0-8.284-6.716-15-15-15z"/></g></svg>