<svg width="750" height="750" viewBox="0 0 750 750" fill="none" xmlns="http://www.w3.org/2000/svg">
<g clip-path="url(#clip0_923_2823)">
<path d="M131.222 729.349C123.713 729.347 116.358 727.222 110.004 723.22C103.65 719.218 98.5559 713.501 95.3079 706.729C92.06 699.957 90.7907 692.404 91.6463 684.942C92.502 677.479 95.4477 670.411 100.144 664.55L170.976 576.28C177.621 568.128 187.216 562.932 197.672 561.824C208.128 560.715 218.599 563.785 226.803 570.363C235.008 576.941 240.282 586.496 241.478 596.947C242.674 607.397 239.693 617.897 233.187 626.16L162.34 714.424C158.604 719.09 153.866 722.855 148.477 725.439C143.089 728.022 137.188 729.359 131.212 729.349H131.222Z" fill="#00B2CA"/>
<path d="M419.344 446.021C395.824 446.009 372.686 440.075 352.062 428.766C331.437 417.458 313.989 401.139 301.326 381.312C288.662 361.485 281.19 338.789 279.599 315.315C278.007 291.84 282.347 268.343 292.218 246.987C302.089 225.631 317.174 207.104 336.083 193.113C354.992 179.122 377.117 170.117 400.419 166.927C423.721 163.737 447.451 166.466 469.422 174.862C491.393 183.257 510.899 197.049 526.141 214.967C531.124 220.812 533.665 228.35 533.238 236.019C532.811 243.688 529.448 250.898 523.847 256.152L468.419 308.172C465.567 310.905 462.202 313.047 458.519 314.472C454.835 315.897 450.905 316.577 446.957 316.474C443.009 316.371 439.12 315.486 435.516 313.871C431.912 312.255 428.663 309.942 425.958 307.063C423.252 304.184 421.144 300.798 419.755 297.099C418.365 293.4 417.723 289.463 417.863 285.514C418.004 281.566 418.925 277.684 420.574 274.094C422.223 270.504 424.567 267.276 427.47 264.597L458.403 235.547C445.091 228.149 429.951 224.686 414.748 225.563C399.545 226.44 384.903 231.62 372.529 240.499C360.155 249.379 350.557 261.593 344.854 275.719C339.15 289.845 337.576 305.301 340.315 320.287C343.053 335.273 349.992 349.173 360.322 360.367C370.652 371.56 383.948 379.587 398.663 383.513C413.377 387.439 428.904 387.102 443.434 382.541C457.964 377.98 470.9 369.383 480.734 357.752C485.856 351.694 493.173 347.92 501.075 347.259C508.978 346.599 516.82 349.106 522.875 354.229C528.93 359.352 532.703 366.672 533.363 374.578C534.024 382.484 531.518 390.329 526.396 396.386C513.232 411.952 496.831 424.457 478.338 433.029C459.845 441.6 439.705 446.033 419.324 446.016L419.344 446.021Z" fill="#FA6E53"/>
<path d="M416.095 597.491C366.928 597.46 318.558 585.05 275.444 561.406C232.33 537.762 195.857 503.643 169.386 462.193C142.915 420.744 127.297 373.296 123.972 324.222C120.646 275.148 129.72 226.025 150.356 181.381C170.993 136.736 202.529 98.0054 242.059 68.7563C281.589 39.5072 327.841 20.6807 376.555 14.0115C425.268 7.34223 474.877 13.0447 520.808 30.5934C566.74 48.1421 607.519 76.9727 639.387 114.429C646.192 122.493 649.526 132.926 648.658 143.444C647.791 153.961 642.792 163.706 634.757 170.544C626.722 177.383 616.305 180.757 605.789 179.929C595.272 179.1 585.512 174.136 578.646 166.124C550.347 132.843 512.518 109.055 470.27 97.9739C428.022 86.893 383.393 89.0534 342.412 104.163C301.431 119.273 266.074 146.604 241.119 182.462C216.165 218.321 202.815 260.978 202.874 304.671C202.934 348.364 216.399 390.985 241.451 426.776C266.503 462.566 301.934 489.801 342.956 504.799C383.977 519.797 428.613 521.836 470.831 510.641C513.048 499.445 550.813 475.554 579.021 442.197C585.907 434.325 595.609 429.476 606.036 428.693C616.462 427.91 626.779 431.257 634.762 438.012C642.746 444.767 647.757 454.389 648.715 464.805C649.674 475.221 646.503 485.597 639.887 493.696C612.368 526.233 578.085 552.372 539.429 570.29C500.773 588.208 458.674 597.474 416.07 597.441L416.095 597.491Z" fill="#00B2CA"/>
</g>
<defs>
<clipPath id="clip0_923_2823">
<rect width="750" height="750" fill="white"/>
</clipPath>
</defs>
</svg>
