<?xml version="1.0" encoding="UTF-8"?>
<svg id="Layer_1" xmlns="http://www.w3.org/2000/svg" version="1.1" viewBox="0 0 200 200">
  <!-- Generator: Adobe Illustrator 29.5.1, SVG Export Plug-In . SVG Version: 2.1.0 Build 141)  -->
  <defs>
    <style>
      .st0 {
        fill: #f2f2f2;
      }
    </style>
  </defs>
  <path class="st0" d="M146.25,150.3c-1.28.11-2.79.65-4.11.78,1.57,4.6,3.77,9.21,4.11,14.1h31.04c.05,0,.77.72.77.77v14.62h-45.15c-.02-2.76-.21-5.68-.57-8.4-2.99-22.15-19.05-41.97-41.11-48.69-19.29-5.88-42.44-1.62-62.48-2.94v-14.88h149.32v14.62c0,.05-.72.77-.77.77h-58.24l9.25,8.45,4.86,5.91h44.38v14.88c-9.95.42-20.37-.57-30.27,0v-7.18h13.34v-1.03h-13.34c-.04-1.28.05-2.57,0-3.85-.03-.69.43-2.13-.76-1.79-.61.17-.09,4.67-.26,5.65h-13.85v1.03h13.85v7.18Z"/>
  <path class="st0" d="M177.55,90.78h-14.88c.51-32.42-27-60.19-59.52-59.52v-14.88c7.38-.07,15.03,1.18,22.07,3.33,30.78,9.41,52.97,38.57,52.33,71.07Z"/>
  <path class="st0" d="M59.54,150.3c-10.25-.14-20.53.1-30.79,0v-14.11c0-.43,1.24-.91,1.77-.8,28.77,1.79,63.23-8.13,81.06,21.1,4.84,7.94,5.88,13.92,6.45,23.05l-.51,1.03c-3.1.27-9.61.37-12.63.03-.78-.09-.72-.15-1.23-.54l-.51-.51c-.09-.26.06-.71,0-1.03-.03-.16.04-.35,0-.51-2.9-12.29-5.95-18.86-17.59-24.64-7.22-3.58-16.55-2.93-25-3.06-1.02-2.18-.32-4.82-.51-7.18h13.85c.04-.33-.68-1.03-.77-1.03h-12.31c-.11,0-.58.77-.76.51-.05-1.45.05-2.91,0-4.37-.03-.69.43-2.14-.76-1.79-.62.18-.08,5.14-.27,6.16-.18.25-.65-.51-.76-.51h-12.57v1.03h13.34c.19,2.36-.51,5,.51,7.18Z"/>
  <path class="st0" d="M88.27,64.86c-2.44,23.06-31.07,33.91-48.99,19.23-9.53-7.81-11.59-18.99-10.53-30.77,12.43.68,23.43,7.84,27.86,19.6l1.89,7.08c.97-1.98.88-6.17,1.57-7.79.06-.15,1.27-2.05,1.6-2.63,5.41-9.55,15.25-16.52,26.6-15.74-.27,3.54.37,7.56,0,11.03Z"/>
  <path class="st0" d="M88.27,27.41c-2.29,21.58-27.64,33.12-45.83,21.72-11.43-7.17-15.14-19.78-13.68-32.74,12.32-.44,23.21,8.14,27.72,19.21l2.03,6.94c2.19-14.85,14.43-26.51,29.77-26.17-.27,3.54.37,7.56,0,11.03Z"/>
  <path class="st0" d="M147.79,90.78h-14.88c-.03-16.26-13.57-29.56-29.76-29.76v-14.88c3-.01,6.43-.02,9.36.64,2,.46,7.12,2.36,9.1,3.22,15.91,6.85,26.58,23.36,26.18,40.78Z"/>
  <path class="st0" d="M88.27,180.57H28.24v-15.39h46.95c.15,0,2.43.6,2.82.73,5.72,1.81,11.1,8.44,10.26,14.67Z"/>
  <path class="st0" d="M118.03,90.78h-14.88v-14.88c8.18,0,15.08,6.61,14.88,14.88Z"/>
  <path class="st0" d="M146.25,150.3v-7.18h-13.85v-1.03h13.85c.17-.97-.35-5.47.26-5.65,1.19-.34.73,1.1.76,1.79.06,1.28-.04,2.58,0,3.85h13.34v1.03h-13.34v7.18c-.34.02-.69-.03-1.03,0Z"/>
  <path class="st0" d="M59.54,150.3c-1.02-2.18-.32-4.82-.51-7.18h-13.34v-1.03h12.57c.11,0,.58.77.76.51.19-1.02-.35-5.98.27-6.16,1.19-.34.74,1.1.76,1.79.06,1.45-.05,2.92,0,4.37.18.25.65-.51.76-.51h12.31c.09,0,.81.69.77,1.03h-13.85c.19,2.36-.51,5,.51,7.18-.27,0-.75,0-1.03,0Z"/>
  <path class="st0" d="M118.03,179.54c0,.06.72.48.51,1.02-.34.03-.69-.03-1.02,0l.51-1.03Z"/>
  <path class="st0" d="M103.15,178.52v-.51c.04.16-.03.35,0,.51Z"/>
  <path class="st0" d="M103.66,180.06c-.19-.14-.43-.27-.51-.51l.51.51Z"/>
</svg>