<?xml version="1.0" encoding="UTF-8"?>
<svg id="Layer_1" xmlns="http://www.w3.org/2000/svg" version="1.1" viewBox="0 0 200 200">
  <!-- Generator: Adobe Illustrator 29.6.1, SVG Export Plug-In . SVG Version: 2.1.1 Build 9)  -->
  <rect class="st1" fill="#2774e6" width="400" height="450"/>
  <g>
    <path class="st0" fill="#fff" d="M118.37,126.72c.07,2.36.19,4.21-.8,6.4-1.33,2.95-4.65,4.17-6.37,6.72-2.79,4.14-.08,5.07,3.92,4.79,6.32-.45,6.96-6.88,6.75-12.02-.03-.72-1-2.68,0-2.84,1.55,3.43,3.83,6.41,5.01,10.05s2.37,10.7,1.43,14.49c-2.13,8.63-13.42,2.57-18.88,2.08-4.85-.43-13.47-.4-18.34-.02-5.58.44-17.17,6.55-19.3-2.06-1.14-4.64.56-12.56,2.43-16.99,1.13-2.67,2.95-4.89,4.01-7.56,1,.16.03,2.11,0,2.84-.2,4.81.38,11.38,6.32,12,4,.42,7.26-.43,4.34-4.77-1.72-2.55-5.04-3.77-6.37-6.72-.99-2.19-.87-4.05-.8-6.4,1.79.61,3.13,1.95,4.94,2.69,6.84,2.81,18.51,2.81,25.52.48,2.37-.79,4-2.23,6.2-3.18Z"/>
    <path class="st0" fill="#fff" d="M118.81,160.33c.53.67-5.72,3.29-6.32,3.5-8.85,3.06-14.33,3.29-23.28.56-.89-.27-7.51-3-7.51-3.41,0-.81.51-.84,1.07-1.11,5.56-2.72,20.33-2.77,26.65-2.15,3.12.3,6.36,1.89,9.39,2.62Z"/>
    <g>
      <path class="st0" fill="#fff" d="M136.33,74.85l1.27,8.64c4.23-.79,8.18-3.06,12.53-3.8,9.58-1.63,20.06,1.59,29.31,3.86-1.88,21.19-24.97,28.44-42.29,19.16-3.84,8.39-1.41,17.42-4.92,25.86l-2.07,4.26c-.5-3.34-1.37-6.64-2.69-9.76-4.32-10.23-17.57-19.99-14.04-32.49,1.66-5.86,9.02-12.94,8.44-18.65-.52-5.12-7.83-11.61-11.36-15.05,4.82,1.8,9.74-1.66,14.18-1.78s4.54,2.11,9.01-.57c4.47-2.69,8.27-7.7,9.43-12.84.37-1.63.41-7.71,1.23-7.95,2.28-.68,5.33,7.23,5.75,9.08,2.81,12.31-4.49,24.66-13.78,32.03ZM133.65,90.92c-3.91-6.18-11.47-3.56-11.34,3.5l1.3-.87c1.98,7,10.83,4.09,7.86-3.05l2.18.43Z"/>
      <path class="st0" fill="#fff" d="M89.56,56.88c-3.77,3.78-10.94,9.84-11.36,15.5-.36,4.95,5.07,10.41,7.07,14.76,6.78,14.66-7.14,23.99-12.67,35.93l-3.11,9.76c-1.14-3.26-2.64-6.6-3.29-10.02-1.29-6.7-.1-13.57-3.26-20.09-17.36,9.26-40.02,2.11-42.36-18.94.14-.5,8.76-2.51,9.98-2.75,9.03-1.81,15.96-2.64,24.95.11,1.26.39,6.68,3.12,7.44,2.38-.18-2.9.12-5.66.9-8.45-11.86-9.31-20.8-28.46-8.91-41.25.65-.24,1.18,0,1.38.66.45,1.42.14,5.05.63,7.23,1.15,5.13,4.95,10.15,9.43,12.84s4.71.45,9.01.57,9.36,3.57,14.18,1.78ZM77.77,94.42c.2-5.21-4.64-9.16-9.38-5.67-.59.44-2.41,2.04-1.75,2.61l1.97-.87c-2.97,7.14,5.88,10.05,7.86,3.05l1.3.87Z"/>
    </g>
  </g>
</svg>